<?xml version="1.0" encoding="utf-8"?>
<!-- Generator: Adobe Illustrator 25.2.3, SVG Export Plug-In . SVG Version: 6.00 Build 0)  -->
<svg version="1.1" id="Layer_1" xmlns="http://www.w3.org/2000/svg" xmlns:xlink="http://www.w3.org/1999/xlink" x="0px" y="0px"
	 viewBox="0 0 400 400" style="enable-background:new 0 0 400 400;" xml:space="preserve">
<style type="text/css">
	.st0{fill:#0AFCDB;}
</style>
<g>
	<path class="st0" d="M32.55,222.56c0,2.6,1.02,5.09,2.85,6.94C53.54,247.81,154.97,346,243.72,346c14.38,0,27.75-1.88,39.98-4.92
		c49.47-12.32,83.78-57.37,83.78-108.36v0c0-0.12-0.17-0.17-0.22-0.05c-2.72,6.06-31.71,65.38-126.36,65.38
		c-70.76,0-146.83-78.76-159.86-93.11c-1.14-1.26-1.13-3.16,0.05-4.39c13.98-14.6,98.25-98.43,160.19-98.43
		c60.66,0,78.37,36.54,78.36,68.7c-0.01,25.42-10.62,39.82-13.43,43.19c-0.21,0.26-0.62,0.08-0.6-0.25
		c0.52-8.8,2.06-71.16-59.43-71.16c-50.67,0-104.93,46.51-116.9,57.71c-1.38,1.29-1.36,3.47,0.04,4.73
		c26.57,23.89,75.93,57.33,116.86,57.33c64.32,0,121.32-35.83,121.32-105.61c0-53.22-47.69-102.49-123.76-102.49
		c-87.57,0-176.1,88.48-208.15,121.36c-1.95,2-3.02,4.64-3.02,7.43C32.55,192.27,32.55,213.64,32.55,222.56z"/>
	<path class="st0" d="M38.11,139.95c17.72-17.71,73.77-62.41,108.87-79.54c3.08-1.5,1.98-6.14-1.45-6.14l-109.74,0
		c-1.79,0-3.24,1.45-3.24,3.24v80.17C32.55,140.58,36.05,142,38.11,139.95z"/>
	<path class="st0" d="M38.11,260.32c17.72,17.71,73.77,62.41,108.87,79.54c3.08,1.5,1.98,6.14-1.45,6.14l-109.74,0
		c-1.79,0-3.24-1.45-3.24-3.24v-80.17C32.55,259.69,36.05,258.27,38.11,260.32z"/>
</g>
</svg>
